<svg width="49" height="48" viewBox="0 0 49 48" fill="none" xmlns="http://www.w3.org/2000/svg">
<g clip-path="url(#clip0_41_351)">
<path d="M39.4256 4.66323C40.9928 5.89203 42.0728 7.87683 42.5144 9.95523L42.6704 10.0176L47.5784 12.288C47.8526 12.4142 48.0849 12.6162 48.2482 12.87C48.4115 13.1238 48.4988 13.419 48.5 13.7208V43.4016C48.4982 43.6482 48.4394 43.891 48.328 44.111C48.2167 44.331 48.0559 44.5222 47.8583 44.6696C47.6606 44.817 47.4315 44.9166 47.1889 44.9606C46.9463 45.0046 46.6968 44.9918 46.46 44.9232L32.8544 41.0832L16.6784 45.5424C16.3866 45.6231 16.078 45.6198 15.788 45.5328L1.6376 41.3208C1.31053 41.2248 1.02318 41.0258 0.818229 40.7534C0.613282 40.481 0.501679 40.1497 0.5 39.8088L0.5 9.59523C0.5 8.53923 1.5272 7.78083 2.552 8.07843L16.2368 12.0648L23.192 9.93603C23.288 9.90723 23.3856 9.88723 23.4848 9.87603C23.7536 8.30163 24.5048 6.78963 25.7648 5.31603C27.26 3.56403 29.8832 2.53683 32.4392 2.41443C35.0912 2.28723 37.1168 2.85363 39.4232 4.66083M3.6992 11.7144V38.6304L15.3872 42.108V15.1152L3.6992 11.7144ZM23.4008 13.188L18.5864 14.6592V41.7288L30.7424 38.3832V30.4752C30.7424 29.6016 31.46 28.8936 32.3432 28.8936C33.2264 28.8936 33.9416 29.6016 33.9416 30.4776V38.1024L45.3008 41.3064V14.7264L42.6128 13.4784C42.568 13.7424 42.5096 14.0008 42.4376 14.2536C41.9177 16.0946 41.042 17.8159 39.86 19.32L33.9152 26.7432C33.7587 26.9384 33.5588 27.0944 33.3314 27.1987C33.104 27.3031 32.8554 27.3529 32.6053 27.3443C32.3553 27.3357 32.1107 27.2688 31.8911 27.149C31.6714 27.0293 31.4827 26.8599 31.34 26.6544L25.784 18.6072C24.8656 17.3288 24.2248 16.18 23.8616 15.1608C23.6332 14.523 23.4786 13.8611 23.4008 13.188ZM32.5928 5.57763C30.8504 5.66163 29.06 6.36243 28.208 7.35843C27.1832 8.55843 26.6792 9.68163 26.5784 10.8192C26.4584 12.1896 26.54 13.1568 26.8808 14.1144C27.1328 14.8224 27.6344 15.72 28.4096 16.8024L32.756 23.0952L37.34 17.3712C38.2654 16.1898 38.9511 14.8389 39.3584 13.3944C39.9344 11.3784 39.0656 8.41683 37.4384 7.14483C35.7704 5.83683 34.5104 5.48403 32.5952 5.57763M32.9264 7.25043C35.576 7.25043 37.7264 9.37443 37.7264 11.9952C37.7182 13.2607 37.208 14.4711 36.3081 15.3607C35.4081 16.2503 34.1918 16.7464 32.9264 16.74C30.2768 16.74 28.1264 14.616 28.1264 11.9952C28.1264 9.37443 30.2768 7.25043 32.9264 7.25043ZM32.9264 10.4136C32.7174 10.4124 32.5103 10.4523 32.3167 10.5311C32.1232 10.6099 31.9471 10.726 31.7984 10.8729C31.6498 11.0198 31.5315 11.1945 31.4504 11.387C31.3693 11.5796 31.3269 11.7863 31.3256 11.9952C31.3256 12.8688 32.0432 13.5768 32.9264 13.5768C33.1354 13.5778 33.3425 13.5376 33.5359 13.4585C33.7293 13.3794 33.9052 13.263 34.0537 13.1159C34.2021 12.9688 34.3201 12.7939 34.4009 12.6012C34.4818 12.4085 34.5239 12.2018 34.5248 11.9928C34.5216 11.5717 34.3516 11.1689 34.052 10.8729C33.7524 10.5769 33.3476 10.4117 32.9264 10.4136Z" fill="#444444"/>
</g>
<defs>
<clipPath id="clip0_41_351">
<rect width="48" height="48" fill="white" transform="translate(0.5)"/>
</clipPath>
</defs>
</svg>
