<svg width="49" height="48" viewBox="0 0 49 48" fill="none" xmlns="http://www.w3.org/2000/svg">
<path d="M42.044 20.31L39.308 12.102C38.9111 10.907 38.1477 9.8674 37.1262 9.13102C36.1048 8.39463 34.8772 7.99888 33.618 8H15.382C14.1228 7.99888 12.8952 8.39463 11.8738 9.13102C10.8523 9.8674 10.0889 10.907 9.692 12.102L6.956 20.31C6.22844 20.6144 5.60712 21.1271 5.17013 21.7837C4.73315 22.4402 4.5 23.2113 4.5 24V34C4.5 35.476 5.308 36.752 6.5 37.446V42C6.5 42.5304 6.71071 43.0391 7.08579 43.4142C7.46086 43.7893 7.96957 44 8.5 44H10.5C11.0304 44 11.5391 43.7893 11.9142 43.4142C12.2893 43.0391 12.5 42.5304 12.5 42V38H36.5V42C36.5 42.5304 36.7107 43.0391 37.0858 43.4142C37.4609 43.7893 37.9696 44 38.5 44H40.5C41.0304 44 41.5391 43.7893 41.9142 43.4142C42.2893 43.0391 42.5 42.5304 42.5 42V37.446C43.1068 37.098 43.6111 36.5963 43.9623 35.9913C44.3134 35.3863 44.4989 34.6995 44.5 34V24C44.5 23.2113 44.2669 22.4402 43.8299 21.7837C43.3929 21.1271 42.7716 20.6144 42.044 20.31ZM15.382 12H33.616C34.478 12 35.242 12.548 35.514 13.368L37.726 20H11.274L13.484 13.368C13.6167 12.9696 13.8714 12.6231 14.2121 12.3775C14.5528 12.132 14.9621 11.9999 15.382 12ZM11.5 32C11.1059 31.9999 10.7157 31.9221 10.3516 31.7712C9.9876 31.6202 9.65684 31.3991 9.37827 31.1203C9.09969 30.8416 8.87875 30.5107 8.72806 30.1465C8.57736 29.7824 8.49987 29.3921 8.5 28.998C8.50013 28.6039 8.57788 28.2137 8.72882 27.8496C8.87976 27.4856 9.10092 27.1548 9.37968 26.8763C9.65844 26.5977 9.98934 26.3768 10.3535 26.2261C10.7176 26.0754 11.1079 25.9979 11.502 25.998C12.2979 25.9983 13.0611 26.3147 13.6237 26.8777C14.1863 27.4407 14.5023 28.2041 14.502 29C14.5017 29.7959 14.1853 30.5591 13.6223 31.1217C13.0593 31.6843 12.2959 32.0003 11.5 32ZM37.5 32C37.1059 31.9999 36.7157 31.9221 36.3516 31.7712C35.9876 31.6202 35.6568 31.3991 35.3783 31.1203C35.0997 30.8416 34.8787 30.5107 34.7281 30.1465C34.5774 29.7824 34.4999 29.3921 34.5 28.998C34.5001 28.6039 34.5779 28.2137 34.7288 27.8496C34.8798 27.4856 35.1009 27.1548 35.3797 26.8763C35.6584 26.5977 35.9893 26.3768 36.3535 26.2261C36.7176 26.0754 37.1079 25.9979 37.502 25.998C38.2979 25.9983 39.0611 26.3147 39.6237 26.8777C40.1863 27.4407 40.5023 28.2041 40.502 29C40.5017 29.7959 40.1853 30.5591 39.6223 31.1217C39.0593 31.6843 38.2959 32.0003 37.5 32Z" fill="#444444"/>
</svg>
