<svg width="49" height="48" viewBox="0 0 49 48" fill="none" xmlns="http://www.w3.org/2000/svg">
<path d="M14.5 20H18.5C19.0304 20 19.5391 19.7893 19.9142 19.4142C20.2893 19.0391 20.5 18.5304 20.5 18C20.5 17.4696 20.2893 16.9609 19.9142 16.5858C19.5391 16.2107 19.0304 16 18.5 16H14.5C13.9696 16 13.4609 16.2107 13.0858 16.5858C12.7107 16.9609 12.5 17.4696 12.5 18C12.5 18.5304 12.7107 19.0391 13.0858 19.4142C13.4609 19.7893 13.9696 20 14.5 20ZM42.5 8H26.5V6C26.5 5.46957 26.2893 4.96086 25.9142 4.58579C25.5391 4.21071 25.0304 4 24.5 4C23.9696 4 23.4609 4.21071 23.0858 4.58579C22.7107 4.96086 22.5 5.46957 22.5 6V8H6.5C5.96957 8 5.46086 8.21071 5.08579 8.58579C4.71071 8.96086 4.5 9.46957 4.5 10V30C4.5 31.5913 5.13214 33.1174 6.25736 34.2426C7.38258 35.3679 8.9087 36 10.5 36H19.68L15.08 40.58C14.8925 40.7659 14.7438 40.9871 14.6422 41.2308C14.5407 41.4746 14.4884 41.736 14.4884 42C14.4884 42.264 14.5407 42.5254 14.6422 42.7691C14.7438 43.0129 14.8925 43.2341 15.08 43.42C15.2659 43.6074 15.4871 43.7562 15.7308 43.8578C15.9746 43.9593 16.236 44.0116 16.5 44.0116C16.764 44.0116 17.0254 43.9593 17.2692 43.8578C17.5129 43.7562 17.7341 43.6074 17.92 43.42L22.5 38.82V42C22.5 42.5304 22.7107 43.0391 23.0858 43.4142C23.4609 43.7893 23.9696 44 24.5 44C25.0304 44 25.5391 43.7893 25.9142 43.4142C26.2893 43.0391 26.5 42.5304 26.5 42V38.82L31.08 43.42C31.2659 43.6074 31.4871 43.7562 31.7308 43.8578C31.9746 43.9593 32.236 44.0116 32.5 44.0116C32.764 44.0116 33.0254 43.9593 33.2692 43.8578C33.5129 43.7562 33.7341 43.6074 33.92 43.42C34.1075 43.2341 34.2562 43.0129 34.3578 42.7691C34.4593 42.5254 34.5116 42.264 34.5116 42C34.5116 41.736 34.4593 41.4746 34.3578 41.2308C34.2562 40.9871 34.1075 40.7659 33.92 40.58L29.32 36H38.5C40.0913 36 41.6174 35.3679 42.7426 34.2426C43.8679 33.1174 44.5 31.5913 44.5 30V10C44.5 9.46957 44.2893 8.96086 43.9142 8.58579C43.5391 8.21071 43.0304 8 42.5 8ZM40.5 30C40.5 30.5304 40.2893 31.0391 39.9142 31.4142C39.5391 31.7893 39.0304 32 38.5 32H10.5C9.96957 32 9.46086 31.7893 9.08579 31.4142C8.71071 31.0391 8.5 30.5304 8.5 30V12H40.5V30ZM14.5 28H26.5C27.0304 28 27.5391 27.7893 27.9142 27.4142C28.2893 27.0391 28.5 26.5304 28.5 26C28.5 25.4696 28.2893 24.9609 27.9142 24.5858C27.5391 24.2107 27.0304 24 26.5 24H14.5C13.9696 24 13.4609 24.2107 13.0858 24.5858C12.7107 24.9609 12.5 25.4696 12.5 26C12.5 26.5304 12.7107 27.0391 13.0858 27.4142C13.4609 27.7893 13.9696 28 14.5 28Z" fill="#444444"/>
</svg>
