<svg width="49" height="48" viewBox="0 0 49 48" fill="none" xmlns="http://www.w3.org/2000/svg">
<path d="M20.5 44V30.86M24.5 22H24.52M24.5 14H24.52M28.5 30.86V44M30.5 32C28.769 30.7018 26.6637 30 24.5 30C22.3363 30 20.231 30.7018 18.5 32M32.5 22H32.52M32.5 14H32.52M16.5 22H16.52M16.5 14H16.52" stroke="#444444" stroke-width="3.5" stroke-linecap="round" stroke-linejoin="round"/>
<path d="M36.5 4H12.5C10.2909 4 8.5 5.79086 8.5 8V40C8.5 42.2091 10.2909 44 12.5 44H36.5C38.7091 44 40.5 42.2091 40.5 40V8C40.5 5.79086 38.7091 4 36.5 4Z" stroke="#444444" stroke-width="3.5" stroke-linecap="round" stroke-linejoin="round"/>
</svg>
