<svg width="49" height="49" viewBox="0 0 49 49" fill="none" xmlns="http://www.w3.org/2000/svg">
<path d="M24.5 4.5C16.5 4.5 8.5 5.5 8.5 12.5V31.5C8.5 35.36 11.64 38.5 15.5 38.5L12.5 41.5V42.5H16.96L20.96 38.5H28.5L32.5 42.5H36.5V41.5L33.5 38.5C37.36 38.5 40.5 35.36 40.5 31.5V12.5C40.5 5.5 33.34 4.5 24.5 4.5ZM15.5 34.5C13.84 34.5 12.5 33.16 12.5 31.5C12.5 29.84 13.84 28.5 15.5 28.5C17.16 28.5 18.5 29.84 18.5 31.5C18.5 33.16 17.16 34.5 15.5 34.5ZM22.5 20.5H12.5V12.5H22.5V20.5ZM26.5 20.5V12.5H36.5V20.5H26.5ZM33.5 34.5C31.84 34.5 30.5 33.16 30.5 31.5C30.5 29.84 31.84 28.5 33.5 28.5C35.16 28.5 36.5 29.84 36.5 31.5C36.5 33.16 35.16 34.5 33.5 34.5Z" fill="#444444"/>
</svg>
