<svg width="49" height="48" viewBox="0 0 49 48" fill="none" xmlns="http://www.w3.org/2000/svg">
<g clip-path="url(#clip0_41_365)">
<path d="M1.96118 43.7108C1.98823 43.6061 2.00176 43.4984 2.00144 43.3903L1.99983 43.321L1.99984 43.3243C1.99571 42.8482 1.81835 42.3899 1.5009 42.0351C1.18345 41.6803 0.747654 41.4533 0.274976 41.3965L0.265316 41.3965L0.265317 38.2334C0.739739 38.1788 1.17786 37.9527 1.49728 37.5977C1.8167 37.2427 1.99542 36.7832 1.99983 36.3057C1.99571 35.8296 1.81835 35.3713 1.5009 35.0165C1.18346 34.6617 0.747654 34.4347 0.274978 34.3779L0.265318 34.3779L0.265315 31.2148C0.73974 31.1602 1.17786 30.9341 1.49728 30.5791C1.8167 30.2241 1.99542 29.7646 1.99984 29.2871C1.99572 28.811 1.81835 28.3527 1.50091 27.9979C1.18346 27.6431 0.747655 27.4161 0.274979 27.3593L0.265316 27.3593L0.265318 24.1962C0.739743 24.1416 1.17786 23.9155 1.49728 23.5605C1.8167 23.2055 1.99543 22.746 1.99984 22.2685C1.99571 21.7924 1.81835 21.3341 1.5009 20.9793C1.18346 20.6245 0.747658 20.3975 0.274982 20.3407L0.26532 20.3407L0.265319 17.1776C0.739744 17.123 1.17786 16.8969 1.49728 16.5419C1.81671 16.1869 1.99543 15.7274 1.99984 15.2499C1.99984 15.1725 1.9628 15.0969 1.96119 15.0179L46.7849 15.0179C46.7624 15.0727 46.7479 15.1387 46.7479 15.2064L46.7495 15.2531L46.7495 15.2498L46.7495 15.2692C46.7493 15.5201 46.7986 15.7685 46.8945 16.0003C46.9904 16.2322 47.1311 16.4428 47.3085 16.6202C47.4859 16.7976 47.6965 16.9383 47.9284 17.0342C48.1602 17.1302 48.4086 17.1794 48.6595 17.1792L48.6789 17.1792C48.7562 17.1792 48.7948 17.1406 48.8721 17.1406L48.8721 20.3068C48.8226 20.2805 48.7672 20.2672 48.7111 20.2682L48.6773 20.2698C48.3998 20.2809 48.1275 20.349 47.8775 20.4699C47.6275 20.5908 47.405 20.7619 47.224 20.9725C47.043 21.1831 46.9073 21.4288 46.8254 21.6941C46.7435 21.9595 46.7171 22.2389 46.7479 22.5149L46.7479 22.5052L46.7479 22.5245C46.7477 22.7754 46.7969 23.0239 46.8929 23.2557C46.9888 23.4875 47.1295 23.6982 47.3069 23.8756C47.4843 24.053 47.6949 24.1936 47.9267 24.2896C48.1586 24.3855 48.407 24.4348 48.6579 24.4346L48.6772 24.4346C48.7546 24.4346 48.7932 24.3959 48.8705 24.3959L48.8705 27.559C48.821 27.5326 48.7656 27.5193 48.7095 27.5203L48.6756 27.5219C48.1639 27.5219 47.6732 27.7252 47.3114 28.087C46.9495 28.4489 46.7462 28.9396 46.7462 29.4513C46.7462 29.963 46.9495 30.4538 47.3114 30.8156C47.6732 31.1774 48.1639 31.3807 48.6756 31.3807C48.7529 31.3807 48.7916 31.3421 48.8689 31.3421L48.8689 34.5051C48.8184 34.4782 48.7618 34.4649 48.7046 34.4665L48.674 34.4681C48.4207 34.4681 48.1698 34.518 47.9357 34.6149C47.7016 34.7119 47.4889 34.854 47.3097 35.0332C47.1306 35.2123 46.9885 35.425 46.8915 35.6591C46.7945 35.8932 46.7446 36.1441 46.7446 36.3975C46.7446 36.6508 46.7945 36.9017 46.8915 37.1358C46.9885 37.3699 47.1306 37.5826 47.3097 37.7617C47.4889 37.9409 47.7016 38.083 47.9357 38.18C48.1698 38.2769 48.4207 38.3268 48.674 38.3268C48.7513 38.3268 48.79 38.2882 48.8673 38.2882L48.8673 41.4512C48.8178 41.4249 48.7623 41.4116 48.7062 41.4126L48.6724 41.4142L48.6531 41.4142C48.4022 41.414 48.1537 41.4633 47.9219 41.5592C47.6901 41.6551 47.4795 41.7958 47.3021 41.9732C47.1246 42.1506 46.984 42.3613 46.888 42.5931C46.7921 42.8249 46.7428 43.0734 46.743 43.3243L46.743 43.3404L46.7414 43.4032C46.7411 43.5151 46.7552 43.6266 46.7833 43.7349L46.7817 43.7269L1.96118 43.7108ZM34.4114 41.0873L34.4113 41.4738C34.4165 41.6237 34.4796 41.7658 34.5875 41.87C34.6954 41.9742 34.8395 42.0325 34.9895 42.0325C35.1395 42.0325 35.2837 41.9742 35.3915 41.87C35.4994 41.7658 35.5626 41.6237 35.5677 41.4738L35.5677 41.0808C35.5626 40.9309 35.4994 40.7888 35.3915 40.6846C35.2837 40.5804 35.1395 40.5221 34.9895 40.5221C34.8395 40.5221 34.6954 40.5804 34.5875 40.6846C34.4796 40.7888 34.4165 40.9309 34.4113 41.0808L34.4114 41.0873ZM42.0484 33.4116V40.2015C42.0535 40.3514 42.1167 40.4935 42.2245 40.5977C42.3324 40.7019 42.4766 40.7602 42.6266 40.7602C42.7766 40.7602 42.9207 40.7019 43.0286 40.5977C43.1364 40.4935 43.1996 40.3514 43.2047 40.2015L43.2047 33.4116C43.1996 33.2617 43.1364 33.1196 43.0286 33.0154C42.9207 32.9111 42.7766 32.8528 42.6266 32.8528C42.4766 32.8528 42.3324 32.9111 42.2246 33.0154C42.1167 33.1196 42.0535 33.2617 42.0484 33.4116ZM39.5328 18.3662L39.5328 40.1983C39.5379 40.3482 39.6011 40.4902 39.7089 40.5945C39.8168 40.6987 39.9609 40.757 40.1109 40.757C40.2609 40.757 40.4051 40.6987 40.513 40.5945C40.6208 40.4902 40.684 40.3482 40.6891 40.1983L40.6891 18.3662C40.684 18.2163 40.6208 18.0742 40.513 17.97C40.4051 17.8657 40.261 17.8075 40.1109 17.8075C39.9609 17.8075 39.8168 17.8657 39.7089 17.97C39.6011 18.0742 39.5379 18.2163 39.5328 18.3662ZM26.0319 38.773L26.4957 39.2368C26.6143 39.3378 26.7651 39.3932 26.9209 39.3932C27.0767 39.3932 27.2274 39.3378 27.346 39.2368L27.3444 39.2384C27.3943 39.181 27.432 39.1141 27.4553 39.0417C27.4785 38.9693 27.4869 38.8929 27.4798 38.8172C27.4727 38.7414 27.4504 38.6679 27.4141 38.6011C27.3778 38.5343 27.3284 38.4755 27.2687 38.4283L23.8351 34.9947C23.7827 34.9405 23.7199 34.8974 23.6504 34.868C23.581 34.8385 23.5063 34.8234 23.4309 34.8234C23.3555 34.8234 23.2808 34.8385 23.2114 34.868C23.1419 34.8974 23.0791 34.9405 23.0267 34.9947C22.9547 35.055 22.9018 35.1349 22.8744 35.2246C22.8469 35.3144 22.8461 35.4102 22.872 35.5004V35.4972L14.8098 35.4972C14.8329 35.4074 14.8305 35.313 14.8029 35.2245C14.7753 35.1361 14.7236 35.057 14.6536 34.9963C14.6014 34.9415 14.5386 34.8978 14.4691 34.8679C14.3995 34.838 14.3246 34.8225 14.2489 34.8223C14.1732 34.8222 14.0982 34.8374 14.0286 34.867C13.9589 34.8966 13.8959 34.9401 13.8435 34.9947L10.4099 38.4251C10.3557 38.4775 10.3126 38.5404 10.2832 38.6098C10.2538 38.6793 10.2386 38.7539 10.2386 38.8293C10.2386 38.9048 10.2538 38.9794 10.2832 39.0489C10.3126 39.1183 10.3557 39.1811 10.4099 39.2336C10.5286 39.3346 10.6793 39.39 10.8351 39.39C10.9909 39.39 11.1416 39.3346 11.2603 39.2336L11.2587 39.2352L11.7225 38.7714L26.0319 38.773ZM34.4033 38.3864V38.773C34.4084 38.9229 34.4716 39.0649 34.5795 39.1692C34.6873 39.2734 34.8315 39.3317 34.9815 39.3317C35.1315 39.3317 35.2756 39.2734 35.3835 39.1692C35.4913 39.0649 35.5545 38.9229 35.5596 38.773V38.3864C35.5545 38.2365 35.4914 38.0945 35.3835 37.9902C35.2756 37.886 35.1315 37.8277 34.9815 37.8277C34.8315 37.8277 34.6873 37.886 34.5795 37.9902C34.4716 38.0945 34.4084 38.2365 34.4033 38.3864ZM34.4033 35.6872V36.0737C34.4084 36.2237 34.4716 36.3657 34.5795 36.47C34.6873 36.5742 34.8315 36.6325 34.9815 36.6325C35.1315 36.6325 35.2756 36.5742 35.3835 36.47C35.4914 36.3657 35.5545 36.2237 35.5596 36.0737V35.6872C35.5545 35.5373 35.4914 35.3952 35.3835 35.291C35.2756 35.1868 35.1315 35.1285 34.9815 35.1285C34.8315 35.1285 34.6873 35.1868 34.5795 35.291C34.4716 35.3952 34.4084 35.5373 34.4033 35.6872ZM34.4033 32.988L34.4033 33.3745C34.4084 33.5244 34.4716 33.6665 34.5795 33.7707C34.6873 33.875 34.8315 33.9333 34.9815 33.9333C35.1315 33.9333 35.2756 33.875 35.3835 33.7707C35.4914 33.6665 35.5545 33.5244 35.5596 33.3745L35.5596 32.9848C35.5545 32.8349 35.4913 32.6928 35.3835 32.5886C35.2756 32.4843 35.1315 32.4261 34.9815 32.4261C34.8315 32.4261 34.6873 32.4843 34.5795 32.5886C34.4716 32.6928 34.4084 32.8349 34.4033 32.9848V32.988ZM15.6183 19.7947L15.6183 19.9107C14.7057 20.0508 13.8733 20.5127 13.2716 21.2131C12.6699 21.9134 12.3387 22.8059 12.3377 23.7292L12.3377 31.5691C12.3378 32.1731 12.5777 32.7523 13.0048 33.1793C13.4318 33.6064 14.011 33.8463 14.615 33.8464L22.7158 33.8464C23.3198 33.8463 23.8989 33.6064 24.326 33.1793C24.753 32.7523 24.993 32.1731 24.9931 31.5691L24.9931 23.7292C24.993 22.8091 24.6646 21.9193 24.0671 21.2196C23.4696 20.52 22.6421 20.0564 21.7334 19.9123L21.7109 19.9091L21.7109 19.7931C21.7073 19.6409 21.6453 19.4959 21.5376 19.3882C21.4299 19.2805 21.2849 19.2185 21.1327 19.2149H16.1981C16.0459 19.2185 15.9009 19.2805 15.7932 19.3882C15.6855 19.4959 15.6219 19.6425 15.6183 19.7947ZM34.3936 30.2888V30.6753C34.3988 30.8252 34.4619 30.9673 34.5698 31.0715C34.6777 31.1758 34.8218 31.234 34.9718 31.234C35.1218 31.234 35.266 31.1758 35.3738 31.0715C35.4817 30.9673 35.5448 30.8252 35.55 30.6753L35.55 30.2856C35.5448 30.1357 35.4817 29.9936 35.3738 29.8894C35.266 29.7851 35.1218 29.7268 34.9718 29.7268C34.8218 29.7268 34.6777 29.7851 34.5698 29.8894C34.4619 29.9936 34.3988 30.1357 34.3936 30.2856L34.3936 30.2888ZM34.3936 27.5896V27.9729C34.3988 28.1228 34.4619 28.2649 34.5698 28.3691C34.6777 28.4733 34.8218 28.5316 34.9718 28.5316C35.1218 28.5316 35.266 28.4733 35.3738 28.3691C35.4817 28.2649 35.5448 28.1228 35.55 27.9729L35.55 27.5896C35.5448 27.4397 35.4817 27.2976 35.3738 27.1934C35.266 27.0891 35.1218 27.0309 34.9718 27.0309C34.8218 27.0309 34.6777 27.0891 34.5698 27.1934C34.4619 27.2976 34.3988 27.4397 34.3936 27.5896ZM34.3936 24.8871L34.3936 25.2737C34.3988 25.4236 34.4619 25.5656 34.5698 25.6699C34.6777 25.7741 34.8218 25.8324 34.9718 25.8324C35.1218 25.8324 35.266 25.7741 35.3738 25.6699C35.4817 25.5656 35.5448 25.4236 35.55 25.2737L35.55 24.8871C35.5448 24.7372 35.4817 24.5952 35.3738 24.4909C35.266 24.3867 35.1218 24.3284 34.9718 24.3284C34.8218 24.3284 34.6777 24.3867 34.5698 24.4909C34.4619 24.5952 34.3988 24.7372 34.3936 24.8871ZM41.9147 22.7645L41.9147 24.6939C41.9198 24.8438 41.983 24.9859 42.0909 25.0901C42.1987 25.1943 42.3429 25.2526 42.4929 25.2526C42.6429 25.2526 42.787 25.1943 42.8949 25.0901C43.0028 24.9859 43.0659 24.8438 43.0711 24.6939L43.0711 22.7645C43.0659 22.6146 43.0028 22.4725 42.8949 22.3683C42.787 22.264 42.6429 22.2058 42.4929 22.2058C42.3429 22.2058 42.1987 22.264 42.0909 22.3683C41.983 22.4725 41.9198 22.6146 41.9147 22.7645ZM34.3936 22.1879L34.3936 22.5744C34.3988 22.7244 34.4619 22.8664 34.5698 22.9707C34.6777 23.0749 34.8218 23.1332 34.9718 23.1332C35.1218 23.1332 35.266 23.0749 35.3738 22.9707C35.4817 22.8664 35.5449 22.7244 35.55 22.5744L35.55 22.1879C35.5448 22.038 35.4817 21.8959 35.3738 21.7917C35.266 21.6875 35.1218 21.6292 34.9718 21.6292C34.8218 21.6292 34.6777 21.6875 34.5698 21.7917C34.4619 21.8959 34.3988 22.038 34.3936 22.1879ZM41.9147 18.5611L41.9147 20.4808C41.9198 20.6307 41.983 20.7728 42.0909 20.877C42.1987 20.9812 42.3429 21.0395 42.4929 21.0395C42.6429 21.0395 42.787 20.9812 42.8949 20.877C43.0028 20.7728 43.0659 20.6307 43.0711 20.4808L43.0711 18.5611C43.0659 18.4111 43.0028 18.2691 42.8949 18.1648C42.787 18.0606 42.6429 18.0023 42.4929 18.0023C42.3429 18.0023 42.1987 18.0606 42.0909 18.1648C41.983 18.2691 41.9198 18.4111 41.9147 18.5611ZM34.3952 19.4871V19.8736C34.4004 20.0235 34.4635 20.1656 34.5714 20.2698C34.6793 20.3741 34.8234 20.4323 34.9734 20.4323C35.1234 20.4323 35.2676 20.3741 35.3754 20.2698C35.4833 20.1656 35.5465 20.0235 35.5516 19.8736V19.4839C35.5465 19.334 35.4833 19.1919 35.3754 19.0877C35.2676 18.9834 35.1234 18.9252 34.9734 18.9252C34.8234 18.9252 34.6793 18.9834 34.5714 19.0877C34.4635 19.1919 34.4004 19.334 34.3952 19.4839L34.3952 19.4871ZM34.3936 16.7863L34.3936 17.1728C34.3988 17.3227 34.4619 17.4648 34.5698 17.569C34.6777 17.6733 34.8218 17.7315 34.9718 17.7315C35.1218 17.7315 35.266 17.6733 35.3738 17.569C35.4817 17.4648 35.5449 17.3227 35.55 17.1728L35.55 16.7831C35.5449 16.6331 35.4817 16.4911 35.3738 16.3868C35.266 16.2826 35.1218 16.2243 34.9718 16.2243C34.8218 16.2243 34.6777 16.2826 34.5698 16.3868C34.4619 16.4911 34.3988 16.6331 34.3936 16.7831V16.7863ZM12.8804 37.6166L13.8451 36.6133H23.9108L24.8755 37.6166L12.8804 37.6166ZM14.615 32.6772C14.3184 32.6762 14.0342 32.558 13.8245 32.3483C13.6148 32.1386 13.4966 31.8544 13.4957 31.5579V27.9729L23.8351 27.9729L23.8351 31.5579C23.8342 31.8544 23.716 32.1386 23.5063 32.3483C23.2966 32.558 23.0124 32.6762 22.7158 32.6772L14.615 32.6772ZM19.5125 30.4788C19.5123 30.8298 19.6162 31.173 19.8111 31.465C20.006 31.7569 20.2831 31.9845 20.6073 32.1189C20.9315 32.2533 21.2884 32.2886 21.6327 32.2201C21.9769 32.1517 22.2932 31.9827 22.5414 31.7345C22.7896 31.4863 22.9586 31.1701 23.027 30.8258C23.0954 30.4815 23.0602 30.1247 22.9258 29.8004C22.7913 29.4762 22.5638 29.1991 22.2718 29.0042C21.9799 28.8094 21.6367 28.7054 21.2857 28.7057C20.8172 28.7113 20.3694 28.8999 20.0381 29.2312C19.7067 29.5625 19.5181 30.0103 19.5125 30.4788ZM14.1898 30.4804L14.1898 30.4837C14.1895 30.7162 14.235 30.9465 14.3238 31.1614C14.4127 31.3763 14.543 31.5715 14.7075 31.736C14.8719 31.9004 15.0671 32.0307 15.282 32.1196C15.4969 32.2084 15.7272 32.2539 15.9597 32.2536L15.963 32.2536C16.9373 32.2423 17.7249 31.4548 17.7361 30.4804C17.7474 29.5061 17.7361 30.4772 17.7361 30.4772C17.7365 30.2447 17.6909 30.0144 17.6021 29.7995C17.5132 29.5846 17.3829 29.3894 17.2185 29.2249C17.054 29.0605 16.8588 28.9302 16.6439 28.8413C16.429 28.7525 16.1987 28.7069 15.9662 28.7073L15.963 28.7073C15.4944 28.7129 15.0467 28.9015 14.7153 29.2328C14.384 29.5641 14.1954 30.0119 14.1898 30.4804ZM20.6705 30.4418C20.671 30.32 20.7076 30.201 20.7757 30.0999C20.8437 29.9989 20.9401 29.9202 21.0528 29.8738C21.1655 29.8275 21.2893 29.8155 21.4088 29.8394C21.5283 29.8633 21.638 29.922 21.7242 30.0082C21.8103 30.0943 21.869 30.204 21.8929 30.3235C21.9168 30.443 21.9049 30.5668 21.8585 30.6795C21.8121 30.7922 21.7334 30.8886 21.6324 30.9566C21.5313 31.0247 21.4124 31.0613 21.2905 31.0618H21.2809C21.1195 31.0614 20.9649 30.9971 20.8509 30.8831C20.7368 30.769 20.6725 30.6144 20.6721 30.4531L20.6705 30.4418ZM15.3477 30.4402C15.3475 30.3176 15.3837 30.1976 15.4517 30.0956C15.5197 29.9936 15.6164 29.914 15.7297 29.867C15.8429 29.8199 15.9676 29.8076 16.0878 29.8315C16.2081 29.8553 16.3186 29.9143 16.4053 30.001C16.492 30.0878 16.551 30.1982 16.5749 30.3185C16.5988 30.4388 16.5864 30.5634 16.5394 30.6767C16.4924 30.7899 16.4128 30.8867 16.3108 30.9547C16.2087 31.0226 16.0888 31.0588 15.9662 31.0586L15.9565 31.0586C15.7952 31.0582 15.6406 30.9939 15.5265 30.8798C15.4124 30.7658 15.3482 30.6112 15.3477 30.4498L15.3477 30.4402ZM13.494 26.8149V23.7292L13.494 23.7099C13.494 23.3575 13.5634 23.0086 13.6983 22.6831C13.8331 22.3575 14.0307 22.0617 14.2799 21.8126C14.529 21.5634 14.8248 21.3658 15.1504 21.231C15.4759 21.0961 15.8248 21.0267 16.1772 21.0268L16.1933 21.0268L21.1279 21.0267L21.1472 21.0268C22.6289 21.0267 23.8303 22.2282 23.8303 23.7099V23.726L23.8303 26.8117L13.494 26.8149Z" fill="#444444"/>
</g>
<defs>
<clipPath id="clip0_41_365">
<rect width="48" height="48" fill="white" transform="translate(0.5)"/>
</clipPath>
</defs>
</svg>
